# Blender v2.68 (sub 0) OBJ File: 'lighttestroom.blend'
# www.blender.org
mtllib grouped/lighttestroomCube.006.mtl
o Cube.006_Cube.009
v 76.359047 -0.245248 0.000000
v 76.359047 -0.245248 -20.000000
v 76.559044 -0.245248 -20.000000
v 76.559044 -0.245248 0.000000
v 76.359047 19.754753 0.000000
v 76.359047 19.754753 -20.000000
v 76.559044 19.754753 -20.000000
v 76.559044 19.754753 0.000000
v 76.359047 3.646154 -20.000000
v 76.359047 3.646154 0.000000
v 76.559044 3.646154 -20.000000
v 76.559044 3.646154 0.000000
v 76.559044 3.646154 -1.686147
v 76.359047 3.646154 -1.686147
v 76.559044 -0.245248 -1.686147
v 76.559044 19.754753 -1.686147
v 76.359047 -0.245248 -1.686147
v 76.359047 19.754753 -1.686147
vt -0.780319 1.165073
vt 2.097043 1.165073
vt 2.097043 -0.518989
vt -0.780319 -0.518989
vt 1.782814 1.165073
vt 4.925093 1.165073
vt 4.925093 -0.518989
vt 1.782814 -0.518989
vt 1.782814 0.210714
vt 1.782814 8.136309
vt 4.925093 8.136309
vt 4.925093 0.210714
vt -1.359465 8.136309
vt -1.359465 0.210714
vt 2.097043 -7.490224
vt -0.780319 -7.490224
vt 4.925093 -7.490224
vt 1.782814 -7.490224
vt -1.045236 -0.518989
vt -1.045236 -7.490224
vt -1.359465 -0.518989
vt -1.359465 -7.490224
vt -3.922597 -0.518989
vt -3.922597 -7.490224
vt -1.045236 1.165073
vt -3.922597 1.165073
vt -1.359465 1.165073
vn -1.000000 0.000000 0.000000
vn 0.000000 0.000000 -1.000000
vn -0.000000 -1.000000 0.000000
vn -0.000000 1.000000 0.000000
vn 1.000000 -0.000000 0.000000
vn 0.000000 -0.000000 1.000000
usemtl walls
s off
f 14/1/1 9/2/1 2/3/1 17/4/1
f 9/5/2 11/6/2 3/7/2 2/8/2
f 17/9/3 2/10/3 3/11/3 15/12/3
f 16/9/4 7/10/4 6/13/4 18/14/4
f 18/4/1 6/3/1 9/15/1 14/16/1
f 6/8/2 7/7/2 11/17/2 9/18/2
f 16/4/5 8/19/5 12/20/5 13/16/5
f 8/8/6 5/21/6 10/22/6 12/18/6
f 1/8/3 17/9/3 15/12/3 4/7/3
f 8/8/4 16/9/4 18/14/4 5/21/4
f 7/19/5 16/23/5 13/24/5 11/20/5
f 11/25/5 13/26/5 15/23/5 3/19/5
f 5/19/1 18/4/1 14/16/1 10/20/1
f 14/9/3 13/12/3 12/7/3 10/8/3
f 13/5/2 15/8/2 17/21/2 14/27/2
