# Blender v2.68 (sub 0) OBJ File: 'lighttestroom.blend'
# www.blender.org
mtllib grouped/lighttestroomCube.001.mtl
o Cube.001_Cube.002
v -23.340954 -0.245248 -19.500000
v -23.340954 -0.245248 -20.500000
v 76.659042 -0.245248 -20.500000
v 76.659042 -0.245248 -19.500000
v -23.340954 19.754753 -19.500000
v -23.340954 19.754753 -20.500000
v 76.659042 19.754753 -20.500000
v 76.659042 19.754753 -19.500000
v -23.340954 19.754753 -19.500000
v -23.340954 19.754753 -20.500000
v -23.340954 -0.245248 -20.500000
v -23.340954 -0.245248 -19.500000
v -23.340954 19.754753 -20.500000
v 76.659042 19.754753 -20.500000
v 76.659042 -0.245248 -20.500000
v -23.340954 -0.245248 -20.500000
v 76.659042 19.754753 -20.500000
v 76.659042 19.754753 -19.500000
v 76.659042 -0.245248 -19.500000
v 76.659042 -0.245248 -20.500000
v 76.659042 19.754753 -19.500000
v -23.340954 19.754753 -19.500000
v -23.340954 -0.245248 -19.500000
v 76.659042 -0.245248 -19.500000
v -23.340954 -0.245248 -19.500000
v -23.340954 -0.245248 -20.500000
v 76.659042 -0.245248 -20.500000
v 76.659042 -0.245248 -19.500000
v 76.659042 19.754753 -19.500000
v 76.659042 19.754753 -20.500000
v -23.340954 19.754753 -20.500000
v -23.340954 19.754753 -19.500000
v -23.340954 -0.245248 -19.500000
v -23.340954 -0.245248 -20.500000
v 76.659042 -0.245248 -20.500000
v 76.659042 -0.245248 -19.500000
v -23.340954 -0.245248 -19.500000
v -23.340954 -0.245248 -20.500000
v 76.659042 -0.245248 -20.500000
v 76.659042 -0.245248 -19.500000
vt 0.495910 4.934486
vt 8.516121 4.934486
vt 0.495910 0.473022
vt 8.516121 0.473022
vt 8.516121 -3.988441
vt 0.495910 -3.988441
vt -7.524299 0.473022
vt -7.524299 -3.988441
vt -7.524299 4.934486
vn 0.000000 0.000000 0.000000
vn -0.000000 -1.000000 0.000000
vn -1.000000 0.000000 0.000000
vn 0.000000 0.000000 -1.000000
vn 1.000000 -0.000000 0.000000
vn 0.000000 -0.000000 1.000000
vn -0.000000 1.000000 0.000000
usemtl walls
s off
f 34/1/1 35/2/1 39/2/1 38/1/1
f 37/3/2 38/1/2 39/2/2 40/4/2
f 26/1/1 27/2/1 35/2/1 34/1/1
f 25/3/1 26/1/1 34/1/1 33/3/1
f 27/2/1 28/4/1 36/4/1 35/2/1
f 36/4/1 33/3/1 37/3/1 40/4/1
f 9/3/3 10/4/3 11/5/3 12/6/3
f 6/4/1 10/4/1 9/3/1 5/3/1
f 2/5/1 11/5/1 10/4/1 6/4/1
f 1/6/1 12/6/1 11/5/1 2/5/1
f 12/6/1 1/6/1 5/3/1 9/3/1
f 13/3/4 14/4/4 15/5/4 16/6/4
f 7/4/1 14/4/1 13/3/1 6/3/1
f 3/5/1 15/5/1 14/4/1 7/4/1
f 2/6/1 16/6/1 15/5/1 3/5/1
f 6/3/1 13/3/1 16/6/1 2/6/1
f 17/3/5 18/7/5 19/8/5 20/6/5
f 8/7/1 18/7/1 17/3/1 7/3/1
f 4/8/1 19/8/1 18/7/1 8/7/1
f 3/6/1 20/6/1 19/8/1 4/8/1
f 7/3/1 17/3/1 20/6/1 3/6/1
f 21/3/6 22/7/6 23/8/6 24/6/6
f 5/7/1 22/7/1 21/3/1 8/3/1
f 1/8/1 23/8/1 22/7/1 5/7/1
f 23/8/1 1/8/1 4/6/1 24/6/1
f 8/3/1 21/3/1 24/6/1 4/6/1
f 28/4/1 25/3/1 33/3/1 36/4/1
f 25/3/1 1/3/1 2/1/1 26/1/1
f 3/2/1 27/2/1 26/1/1 2/1/1
f 4/4/1 28/4/1 27/2/1 3/2/1
f 1/3/1 25/3/1 28/4/1 4/4/1
f 29/3/7 30/1/7 31/9/7 32/7/7
f 7/1/1 30/1/1 29/3/1 8/3/1
f 6/9/1 31/9/1 30/1/1 7/1/1
f 5/7/1 32/7/1 31/9/1 6/9/1
f 8/3/1 29/3/1 32/7/1 5/7/1
f 35/2/1 36/4/1 40/4/1 39/2/1
f 33/3/1 34/1/1 38/1/1 37/3/1
