# Blender v2.68 (sub 0) OBJ File: 'lighttestroom.blend'
# www.blender.org
mtllib grouped/lighttestroomCube.000.mtl
o Cube.000
v 27.591339 10.585321 -0.539845
v 30.486658 6.919531 -9.381740
v 30.488354 6.734983 -9.304672
v 27.593035 10.400774 -0.462777
v 37.162647 11.775949 2.100698
v 40.057968 8.110159 -6.741197
v 40.059662 7.925611 -6.664129
v 37.164341 11.591402 2.177766
vt 5.783329 -1.671531
vt 1.779706 -1.671531
vt 1.779706 0.349880
vt 5.783329 0.349880
vt -0.848194 0.349880
vt 3.155429 0.349880
vt 3.155429 -1.671531
vt -0.848194 -1.671531
vt -2.223917 0.349880
vt -2.223917 -1.671531
vt -2.922382 12.517160
vt -2.777630 12.517160
vt -2.777630 -13.838814
vt -2.922382 -13.838814
vt -0.848194 0.944066
vt -0.848194 2.965477
vt 3.155429 2.965477
vt 3.155429 0.944066
vt -4.851818 2.965477
vt -4.851818 0.944066
vn -0.008477 0.922737 -0.385337
vn 0.289532 -0.366580 -0.884189
vn 0.008477 -0.922737 0.385337
vn -0.289532 0.366580 0.884189
vn -0.957131 -0.119064 -0.264054
vn 0.957131 0.119055 0.264058
usemtl walls
s off
f 2/1/1 1/2/1 5/3/1 6/4/1
f 6/5/2 7/6/2 3/7/2 2/8/2
f 7/3/3 8/9/3 4/10/3 3/2/3
f 1/11/4 4/12/4 8/13/4 5/14/4
f 1/15/5 2/16/5 3/17/5 4/18/5
f 8/15/6 7/16/6 6/19/6 5/20/6
