# Blender v2.68 (sub 0) OBJ File: 'lighttestroom.blend'
# www.blender.org
mtllib grouped/lighttestroomCube.002.mtl
o Cube.002_Cube.001
v 5.189138 4.360561 6.099205
v 6.353797 1.551761 -3.427296
v 6.533435 1.639595 -3.431232
v 5.368776 4.448396 6.095269
v 0.950101 12.894230 3.064889
v 2.114760 10.085429 -6.461611
v 2.294398 10.173264 -6.465547
v 1.129739 12.982064 3.060954
vt 5.783329 -1.671531
vt 1.779706 -1.671531
vt 1.779706 0.349880
vt 5.783329 0.349880
vt -0.848194 0.349880
vt 3.155429 0.349880
vt 3.155429 -1.671531
vt -0.848194 -1.671531
vt -2.223917 0.349880
vt -2.223917 -1.671531
vt -4.851818 -1.671531
vt -4.851818 0.349880
vt -0.848194 0.944066
vt -0.848194 2.965477
vt 3.155429 2.965477
vt 3.155429 0.944066
vt -4.851818 2.965477
vt -4.851818 0.944066
vn -0.898188 -0.439171 0.019678
vn 0.116465 -0.280880 -0.952650
vn 0.898188 0.439171 -0.019678
vn -0.116465 0.280880 0.952650
vn 0.423904 -0.853366 0.303431
vn -0.423904 0.853366 -0.303431
usemtl walls
s off
f 2/1/1 1/2/1 5/3/1 6/4/1
f 6/5/2 7/6/2 3/7/2 2/8/2
f 7/3/3 8/9/3 4/10/3 3/2/3
f 1/11/4 4/8/4 8/5/4 5/12/4
f 1/13/5 2/14/5 3/15/5 4/16/5
f 8/13/6 7/14/6 6/17/6 5/18/6
