# Blender v2.68 (sub 0) OBJ File: 'lighttestroom.blend'
# www.blender.org
mtllib grouped/lighttestroomCube.009.mtl
o Cube.009_Cube.012
v -23.340954 19.654753 0.000000
v -23.340954 19.654753 -20.000000
v 76.659042 19.654753 -20.000000
v 76.659042 19.654753 0.000000
v -23.340954 19.854753 0.000000
v -23.340954 19.854753 -20.000000
v 76.659042 19.854753 -20.000000
v 76.659042 19.854753 0.000000
vt 19.198915 -1.939186
vt 0.503265 -1.939186
vt 0.503265 0.506363
vt 19.198915 0.506363
vt -18.192385 0.506363
vt -18.192385 -1.939186
vt 0.503265 2.951912
vt 19.198915 2.951912
vt -18.192385 2.951912
vn -1.000000 -0.000000 0.000000
vn 0.000000 0.000000 -1.000000
vn 1.000000 -0.000000 0.000000
vn 0.000000 0.000000 1.000000
vn -0.000000 -1.000000 0.000000
vn -0.000000 1.000000 0.000000
usemtl terrainMat
s off
f 2/1/1 1/2/1 5/3/1 6/4/1
f 6/3/2 7/4/2 3/1/2 2/2/2
f 7/3/3 8/5/3 4/6/3 3/2/3
f 1/6/4 4/2/4 8/3/4 5/5/4
f 1/3/5 2/7/5 3/8/5 4/4/5
f 8/3/6 7/7/6 6/9/6 5/5/6
