# Blender v2.68 (sub 0) OBJ File: 'lighttestroom.blend'
# www.blender.org
mtllib grouped/lighttestroomCube.012.mtl
o Cube.012_Cube.015
v 53.386395 2.391115 16.818043
v 49.966194 2.391115 7.421116
v 50.154133 2.391115 7.352712
v 53.574333 2.391115 16.749638
v 53.386395 12.391115 16.818043
v 49.966194 12.391115 7.421116
v 50.154133 12.391115 7.352712
v 53.574333 12.391115 16.749638
vt 5.783329 -1.671531
vt 1.779706 -1.671531
vt 1.779706 0.349880
vt 5.783329 0.349880
vt -0.848194 0.349880
vt 3.155429 0.349880
vt 3.155429 -1.671531
vt -0.848194 -1.671531
vt 1.636611 2.149149
vt -2.080822 2.149149
vt -2.080822 -3.470799
vt 1.636611 -3.470799
vt -3.068806 -3.320587
vt -2.631207 -3.320587
vt -2.631207 1.998936
vt -3.068806 1.998936
vt -0.848194 0.944066
vt -0.848194 2.965477
vt 3.155429 2.965477
vt 3.155429 0.944066
vt -4.851818 2.965477
vt -4.851818 0.944066
vn -0.939693 0.000000 0.342020
vn -0.342021 0.000000 -0.939692
vn 0.939693 0.000000 -0.342020
vn 0.342025 0.000000 0.939691
vn -0.000000 -1.000000 0.000000
vn -0.000000 1.000000 0.000000
usemtl walls
s off
f 2/1/1 1/2/1 5/3/1 6/4/1
f 6/5/2 7/6/2 3/7/2 2/8/2
f 7/9/3 8/10/3 4/11/3 3/12/3
f 1/13/4 4/14/4 8/15/4 5/16/4
f 1/17/5 2/18/5 3/19/5 4/20/5
f 8/17/6 7/18/6 6/21/6 5/22/6
