# Blender v2.68 (sub 0) OBJ File: 'lighttestroom.blend'
# www.blender.org
mtllib grouped/lighttestroomCube.005.mtl
o Cube.005_Cube.008
v -23.440954 -0.245248 0.000000
v -23.440954 -0.245248 -20.000000
v -23.240953 -0.245248 -20.000000
v -23.240953 -0.245248 0.000000
v -23.440954 19.754753 0.000000
v -23.440954 19.754753 -20.000000
v -23.240953 19.754753 -20.000000
v -23.240953 19.754753 0.000000
vt -4.649636 -4.013440
vt 0.503540 -4.013440
vt 0.503540 0.495910
vt -4.649636 0.495910
vt 5.656717 0.495910
vt 5.656717 -4.013440
vt 0.503540 5.005261
vt -4.649636 5.005261
vt 5.656717 5.005261
vn -1.000000 -0.000000 0.000000
vn 0.000000 0.000000 -1.000000
vn 1.000000 -0.000000 0.000000
vn 0.000000 0.000000 1.000000
vn -0.000000 -1.000000 0.000000
vn -0.000000 1.000000 0.000000
usemtl walls
s off
f 2/1/1 1/2/1 5/3/1 6/4/1
f 6/3/2 7/4/2 3/1/2 2/2/2
f 7/3/3 8/5/3 4/6/3 3/2/3
f 1/6/4 4/2/4 8/3/4 5/5/4
f 1/3/5 2/7/5 3/8/5 4/4/5
f 8/3/6 7/7/6 6/9/6 5/5/6
