# Blender v2.62 (sub 0) OBJ File: 'moebel.blend'
# www.blender.org
mtllib bank.mtl
o Test_bank
v -0.250000 0.360699 0.184208
v -0.250000 0.360699 0.113777
v -0.250000 0.360699 0.043347
v -0.250000 0.360699 -0.027084
v -0.250000 0.360699 -0.097514
v -0.250000 0.360699 -0.167945
v -0.250000 0.360699 -0.238375
v -0.250000 0.360699 0.240552
v -0.250000 0.360699 0.170122
v -0.250000 0.360699 0.099691
v -0.250000 0.360699 0.029261
v -0.250000 0.360699 -0.041170
v -0.250000 0.360699 -0.111600
v -0.250000 0.360699 -0.182031
v 0.250000 0.360699 0.184208
v 0.250000 0.360699 0.113777
v 0.250000 0.360699 0.043347
v 0.250000 0.360699 -0.027084
v 0.250000 0.360699 -0.097514
v 0.250000 0.360699 -0.167945
v 0.250000 0.360699 -0.238375
v 0.250000 0.360699 0.240552
v 0.250000 0.360699 0.170122
v 0.250000 0.360699 0.099691
v 0.250000 0.360699 0.029261
v 0.250000 0.360699 -0.041170
v 0.250000 0.360699 -0.111600
v 0.250000 0.360699 -0.182031
v 0.250000 0.380601 0.184208
v 0.250000 0.380601 0.113777
v 0.250000 0.380601 0.043347
v 0.250000 0.380601 -0.027084
v 0.250000 0.380601 -0.097514
v 0.250000 0.380601 -0.167945
v 0.250000 0.380601 -0.238375
v 0.250000 0.380601 0.240552
v 0.250000 0.380601 0.170122
v 0.250000 0.380601 0.099691
v 0.250000 0.380601 0.029261
v 0.250000 0.380601 -0.041170
v 0.250000 0.380601 -0.111600
v 0.250000 0.380601 -0.182031
v -0.250000 0.380601 0.240552
v -0.250000 0.380601 0.170122
v -0.250000 0.380601 0.099691
v -0.250000 0.380601 0.029261
v -0.250000 0.380601 -0.041170
v -0.250000 0.380601 -0.111600
v -0.250000 0.380601 -0.182031
v -0.250000 0.380601 0.184208
v -0.250000 0.380601 0.113777
v -0.250000 0.380601 0.043347
v -0.250000 0.380601 -0.027084
v -0.250000 0.380601 -0.097514
v -0.250000 0.380601 -0.167945
v -0.250000 0.380601 -0.238375
v 0.250000 0.000000 -0.250000
v 0.250000 0.000000 0.250000
v -0.250000 0.000000 0.250000
v -0.250000 0.000000 -0.250000
v 0.250000 0.355024 -0.250000
v 0.250000 0.355024 0.250000
v -0.250000 0.355024 0.250000
v -0.250000 0.355024 -0.250000
vt 0.614627 0.002971
vt 0.571926 0.002971
vt 0.571926 0.377796
vt 0.614627 0.377796
vt 0.756966 0.804811
vt 0.756966 0.762110
vt 0.382141 0.762110
vt 0.382141 0.804811
vt 0.662073 0.002971
vt 0.619372 0.002971
vt 0.619372 0.377796
vt 0.662073 0.377796
vt 0.377397 0.804811
vt 0.377397 0.762110
vt 0.002572 0.762110
vt 0.002572 0.804811
vt 0.709520 0.002971
vt 0.666818 0.002971
vt 0.666818 0.377796
vt 0.709520 0.377796
vt 0.756966 0.852257
vt 0.756966 0.809556
vt 0.382141 0.809556
vt 0.382141 0.852257
vt 0.614627 0.382540
vt 0.571926 0.382540
vt 0.571926 0.757365
vt 0.614627 0.757365
vt 0.002572 0.852257
vt 0.377397 0.852257
vt 0.377397 0.809556
vt 0.002572 0.809556
vt 0.662073 0.757365
vt 0.662073 0.382540
vt 0.619372 0.382540
vt 0.619372 0.757365
vt 0.382141 0.899703
vt 0.756966 0.899703
vt 0.756966 0.857002
vt 0.382141 0.857002
vt 0.709520 0.757365
vt 0.709520 0.382540
vt 0.666818 0.382540
vt 0.666818 0.757365
vt 0.002572 0.899703
vt 0.377397 0.899703
vt 0.377397 0.857002
vt 0.002572 0.857002
vt 0.756966 0.757365
vt 0.756966 0.382540
vt 0.714264 0.382540
vt 0.714264 0.757365
vt 0.382141 0.947150
vt 0.756966 0.947150
vt 0.756966 0.904448
vt 0.382141 0.904448
vt 0.804412 0.762110
vt 0.761710 0.762110
vt 0.761710 0.804811
vt 0.804412 0.804811
vt 0.804412 0.809556
vt 0.761710 0.809556
vt 0.761710 0.852257
vt 0.804412 0.852257
vt 0.851858 0.762110
vt 0.809157 0.762110
vt 0.809157 0.804811
vt 0.851858 0.804811
vt 0.851858 0.809556
vt 0.809157 0.809556
vt 0.809157 0.852257
vt 0.851858 0.852257
vt 0.804412 0.857002
vt 0.761710 0.857002
vt 0.761710 0.899703
vt 0.804412 0.899703
vt 0.899304 0.762110
vt 0.856603 0.762110
vt 0.856603 0.804811
vt 0.899304 0.804811
vt 0.851858 0.857002
vt 0.809157 0.857002
vt 0.809157 0.899703
vt 0.851858 0.899703
vt 0.756966 0.377796
vt 0.756966 0.002971
vt 0.714264 0.002971
vt 0.714264 0.377796
vt 0.002572 0.947150
vt 0.377397 0.947150
vt 0.377397 0.904448
vt 0.002572 0.904448
vt 0.804412 0.757365
vt 0.804412 0.382540
vt 0.761710 0.382540
vt 0.761710 0.757365
vt 0.382141 0.994596
vt 0.756966 0.994596
vt 0.756966 0.951894
vt 0.382141 0.951894
vt 0.804412 0.377796
vt 0.804412 0.002971
vt 0.761710 0.002971
vt 0.761710 0.377796
vt 0.002572 0.994596
vt 0.377397 0.994596
vt 0.377397 0.951894
vt 0.002572 0.951894
vt 0.851858 0.757365
vt 0.851858 0.382540
vt 0.809157 0.382540
vt 0.809157 0.757365
vt 0.899304 0.809556
vt 0.856603 0.809556
vt 0.856603 0.852257
vt 0.899304 0.852257
vt 0.899304 0.857002
vt 0.856603 0.857002
vt 0.856603 0.899703
vt 0.899304 0.899703
vt 0.804412 0.904448
vt 0.761710 0.904448
vt 0.761710 0.947150
vt 0.804412 0.947150
vt 0.946751 0.856727
vt 0.904049 0.856727
vt 0.904049 0.899429
vt 0.946751 0.899429
vt 0.946751 0.809281
vt 0.904049 0.809281
vt 0.904049 0.851983
vt 0.946751 0.851983
vt 0.946751 0.762110
vt 0.904049 0.762110
vt 0.904049 0.804811
vt 0.946751 0.804811
vt 0.852059 0.904272
vt 0.809358 0.904272
vt 0.809358 0.946974
vt 0.852059 0.946974
vt 0.947253 0.378289
vt 0.947253 0.003465
vt 0.904552 0.003465
vt 0.904552 0.378289
vt 0.851858 0.377796
vt 0.851858 0.002971
vt 0.809157 0.002971
vt 0.809157 0.377796
vt 0.947253 0.757859
vt 0.947253 0.383034
vt 0.904552 0.383034
vt 0.904552 0.757859
vt 0.899304 0.757365
vt 0.899304 0.382540
vt 0.856603 0.382540
vt 0.856603 0.757365
vt 0.994699 0.378289
vt 0.994699 0.003465
vt 0.951998 0.003465
vt 0.951998 0.378289
vt 0.899304 0.377796
vt 0.899304 0.002971
vt 0.856603 0.002971
vt 0.856603 0.377796
vt 0.994699 0.757859
vt 0.994699 0.383034
vt 0.951998 0.383034
vt 0.951998 0.757859
vt 0.377397 0.002971
vt 0.002572 0.002971
vt 0.002572 0.377796
vt 0.377397 0.377796
vt 0.567181 0.002971
vt 0.382141 0.002971
vt 0.382141 0.377796
vt 0.567181 0.377796
vt 0.377397 0.567580
vt 0.377397 0.382540
vt 0.002572 0.382540
vt 0.002572 0.567580
vt 0.567181 0.382540
vt 0.382141 0.382540
vt 0.382141 0.757365
vt 0.567181 0.757365
vt 0.377397 0.757365
vt 0.377397 0.572325
vt 0.002572 0.572325
vt 0.002572 0.757365
vn -0.000000 -1.000000 0.000000
vn 0.000000 -0.000000 -1.000000
vn -1.000000 0.000000 -0.000002
vn -0.000000 0.000000 1.000000
vn 1.000000 0.000000 0.000006
vn 0.000000 1.000000 0.000000
vn 1.000000 0.000000 0.000000
vn -1.000000 -0.000000 -0.000000
usemtl bank_0_bank
s off
f 8/1/1 1/2/1 15/3/1 22/4/1
f 9/5/1 2/6/1 16/7/1 23/8/1
f 10/9/1 3/10/1 17/11/1 24/12/1
f 11/13/1 4/14/1 18/15/1 25/16/1
f 12/17/1 5/18/1 19/19/1 26/20/1
f 13/21/1 6/22/1 20/23/1 27/24/1
f 14/25/1 7/26/1 21/27/1 28/28/1
f 15/29/2 1/30/2 50/31/2 29/32/2
f 16/33/2 2/34/2 51/35/2 30/36/2
f 17/37/2 3/38/2 52/39/2 31/40/2
f 18/41/2 4/42/2 53/43/2 32/44/2
f 19/45/2 5/46/2 54/47/2 33/48/2
f 20/49/2 6/50/2 55/51/2 34/52/2
f 56/53/2 35/54/2 21/55/2 7/56/2
f 1/57/3 8/58/3 43/59/3 50/60/3
f 2/61/3 9/62/3 44/63/3 51/64/3
f 3/65/3 10/66/3 45/67/3 52/68/3
f 4/69/3 11/70/3 46/71/3 53/72/3
f 5/73/3 12/74/3 47/75/3 54/76/3
f 6/77/3 13/78/3 48/79/3 55/80/3
f 49/81/3 56/82/3 7/83/3 14/84/3
f 36/85/4 43/86/4 8/87/4 22/88/4
f 37/89/4 44/90/4 9/91/4 23/92/4
f 38/93/4 45/94/4 10/95/4 24/96/4
f 39/97/4 46/98/4 11/99/4 25/100/4
f 40/101/4 47/102/4 12/103/4 26/104/4
f 41/105/4 48/106/4 13/107/4 27/108/4
f 42/109/4 49/110/4 14/111/4 28/112/4
f 29/113/5 36/114/5 22/115/5 15/116/5
f 30/117/5 37/118/5 23/119/5 16/120/5
f 31/121/5 38/122/5 24/123/5 17/124/5
f 32/125/5 39/126/5 25/127/5 18/128/5
f 33/129/5 40/130/5 26/131/5 19/132/5
f 34/133/5 41/134/5 27/135/5 20/136/5
f 35/137/5 42/138/5 28/139/5 21/140/5
f 29/141/6 50/142/6 43/143/6 36/144/6
f 30/145/6 51/146/6 44/147/6 37/148/6
f 31/149/6 52/150/6 45/151/6 38/152/6
f 32/153/6 53/154/6 46/155/6 39/156/6
f 33/157/6 54/158/6 47/159/6 40/160/6
f 34/161/6 55/162/6 48/163/6 41/164/6
f 35/165/6 56/166/6 49/167/6 42/168/6
usemtl bank_1_bank
f 61/169/6 64/170/6 63/171/6 62/172/6
f 57/173/7 61/174/7 62/175/7 58/176/7
f 58/177/4 62/178/4 63/179/4 59/180/4
f 59/181/8 63/182/8 64/183/8 60/184/8
f 61/185/2 57/186/2 60/187/2 64/188/2
